<svg width="40" height="40" viewBox="0 0 40 40" fill="none" xmlns="http://www.w3.org/2000/svg">
<g clip-path="url(#clip0_370_1763)">
<path d="M22.217 1H18.5411V12.4H22.217V1ZM22.217 27.6H18.5411V39H22.217V27.6ZM38.7581 18.1V21.9H27.7307V18.1H38.7581ZM13.0274 21.9V18.1H2V21.9H13.0274ZM25.8928 10.5H29.5686V14.3H25.8928V10.5ZM33.2444 6.7H29.5686V10.5H33.2444V6.7ZM14.8653 10.5H11.1895V14.3H14.8653V10.5ZM7.51372 6.7H11.1895V10.5H7.51372V6.7ZM25.8928 29.5H29.5686V33.3H33.2444V29.5H29.5686V25.7H25.8928V29.5ZM11.1895 29.5V25.7H14.8653V29.5H11.1895V33.3H7.51372V29.5H11.1895ZM60.813 8.6V4.8H71.8404V8.6H60.813ZM60.813 27.6H57.1372V8.6H60.813V27.6ZM71.8404 8.6H75.5162V27.6H71.8404V8.6ZM71.8404 27.6V31.4H60.813V27.6H71.8404ZM83.0369 16.2V12.4H97.7402V16.2H83.0369ZM79.3611 16.2H83.0369V20H79.3611V16.2ZM83.0369 23.8V20H94.0643V23.8H83.0369ZM97.7402 27.6H94.0643V23.8H97.7402V27.6ZM94.0643 27.6V31.4H79.3611V27.6H94.0643ZM116.288 12.4V16.2H105.261V12.4H116.288ZM116.288 16.2H119.964V31.4H105.261V27.6H116.288V23.8H105.261V20H116.288V16.2ZM101.585 23.8H105.261V27.6H101.585V23.8ZM127.487 20H131.162V23.8H127.487V31.4H123.811V4.8H127.487V20ZM138.514 12.4V16.2H134.838V12.4H138.514ZM134.838 16.2V20H131.162V16.2H134.838ZM134.838 27.6H131.162V23.8H134.838V27.6ZM138.514 31.4H134.838V27.6H138.514V31.4ZM157.077 12.4V16.2H146.049V12.4H157.077ZM157.077 16.2H160.753V31.4H146.049V27.6H157.077V23.8H146.049V20H157.077V16.2ZM142.374 23.8H146.049V27.6H142.374V23.8ZM183.175 8.6V4.8H194.203V8.6H183.175ZM194.203 8.6H197.878V31.4H194.203V16.2H183.175V31.4H179.499V8.6H183.175V12.4H194.203V8.6ZM220.102 12.4V31.4H216.427V27.6H205.399V23.8H216.427V16.2H205.399V12.4H220.102ZM205.399 16.2V23.8H201.723V16.2H205.399ZM216.427 31.4V35.2H201.723V31.4H216.427ZM227.623 16.2V12.4H238.651V16.2H227.623ZM238.651 16.2H242.326V23.8H227.623V27.6H223.947V16.2H227.623V20H238.651V16.2ZM227.623 31.4V27.6H242.326V31.4H227.623ZM260.874 12.4V16.2H249.847V31.4H246.171V12.4H260.874ZM260.874 16.2H264.55V31.4H260.874V16.2ZM283.098 12.4V16.2H272.071V12.4H283.098ZM268.395 16.2H272.071V27.6H268.395V16.2ZM286.774 20H283.098V16.2H286.774V20ZM286.774 23.8V27.6H283.098V23.8H286.774ZM272.071 31.4V27.6H283.098V31.4H272.071ZM294.297 23.8H290.621V12.4H294.297V23.8ZM305.324 12.4H309V31.4H305.324V27.6H294.297V23.8H305.324V12.4ZM305.324 31.4V35.2H290.621V31.4H305.324Z" fill="#6B7280"/>
</g>
<defs>
<clipPath id="clip0_370_1763">
<rect width="40" height="40" fill="white"/>
</clipPath>
</defs>
</svg>
